<svg xmlns="http://www.w3.org/2000/svg" fill="none" viewBox="0 0 128 128">
  <path d="M50.4 78.5a75.1 75.1 0 0 0-28.5 6.9l24.2-65.7c.7-2 1.9-3.2 3.4-3.2h81c1.9 0 3 1.8 2.2 3.6L109.6 52" stroke="#8B5CF6" stroke-width="8" stroke-linecap="round" stroke-linejoin="round"/>
  <path d="m67.1 22.3 19.8 52.6c.6 1.6-.2 3.3-1.8 3.8a3 3 0 0 1-3.8-1.8L61.5 24.3c-.6-1.6.2-3.3 1.8-3.8a3 3 0 0 1 3.8 1.8Z" fill="#8B5CF6"/>
  <path d="M109.6 52H78.4l-5.7 15.2H82l-7 18.7c-.6 1.6.2 3.3 1.8 3.8a3 3 0 0 0 3.8-1.8l13.2-35.2c.6-1.6-.2-3.3-1.8-3.8a3 3 0 0 0-3.8 1.8L78.4 67h30.2c1.9 0 3-1.8 2.2-3.6Z" fill="#8B5CF6"/>
</svg>
